G75*
%MOIN*%
%OFA0B0*%
%FSLAX25Y25*%
%IPPOS*%
%LPD*%
%AMOC8*
5,1,8,0,0,1.08239X$1,22.5*
%
%ADD10C,0.00800*%
%ADD11C,0.03482*%
%ADD12C,0.00600*%
%ADD13R,0.01280X0.01673*%
%ADD14R,0.01378X0.01378*%
%ADD15R,0.01673X0.01280*%
%ADD16C,0.01600*%
%ADD17C,0.00500*%
%ADD18C,0.03000*%
%ADD19C,0.00700*%
D10*
X0028664Y0016958D02*
X0055436Y0016958D01*
X0055436Y0027588D02*
X0055436Y0033887D01*
X0050711Y0033887D01*
X0050711Y0028375D01*
X0033389Y0028375D01*
X0033389Y0033887D01*
X0028664Y0033887D01*
X0028664Y0027588D01*
X0068251Y0063867D02*
X0068251Y0090068D01*
X0069648Y0091466D01*
X0095849Y0091466D01*
X0095849Y0063867D01*
X0068251Y0063867D01*
X0067050Y0092167D02*
X0067052Y0092216D01*
X0067058Y0092264D01*
X0067068Y0092312D01*
X0067082Y0092359D01*
X0067099Y0092405D01*
X0067120Y0092449D01*
X0067145Y0092491D01*
X0067173Y0092531D01*
X0067205Y0092569D01*
X0067239Y0092604D01*
X0067276Y0092636D01*
X0067315Y0092665D01*
X0067357Y0092691D01*
X0067401Y0092713D01*
X0067446Y0092731D01*
X0067493Y0092746D01*
X0067540Y0092757D01*
X0067589Y0092764D01*
X0067638Y0092767D01*
X0067687Y0092766D01*
X0067735Y0092761D01*
X0067784Y0092752D01*
X0067831Y0092739D01*
X0067877Y0092722D01*
X0067921Y0092702D01*
X0067964Y0092678D01*
X0068005Y0092651D01*
X0068043Y0092620D01*
X0068079Y0092587D01*
X0068111Y0092551D01*
X0068141Y0092512D01*
X0068168Y0092471D01*
X0068191Y0092427D01*
X0068210Y0092382D01*
X0068226Y0092336D01*
X0068238Y0092289D01*
X0068246Y0092240D01*
X0068250Y0092191D01*
X0068250Y0092143D01*
X0068246Y0092094D01*
X0068238Y0092045D01*
X0068226Y0091998D01*
X0068210Y0091952D01*
X0068191Y0091907D01*
X0068168Y0091863D01*
X0068141Y0091822D01*
X0068111Y0091783D01*
X0068079Y0091747D01*
X0068043Y0091714D01*
X0068005Y0091683D01*
X0067964Y0091656D01*
X0067921Y0091632D01*
X0067877Y0091612D01*
X0067831Y0091595D01*
X0067784Y0091582D01*
X0067735Y0091573D01*
X0067687Y0091568D01*
X0067638Y0091567D01*
X0067589Y0091570D01*
X0067540Y0091577D01*
X0067493Y0091588D01*
X0067446Y0091603D01*
X0067401Y0091621D01*
X0067357Y0091643D01*
X0067315Y0091669D01*
X0067276Y0091698D01*
X0067239Y0091730D01*
X0067205Y0091765D01*
X0067173Y0091803D01*
X0067145Y0091843D01*
X0067120Y0091885D01*
X0067099Y0091929D01*
X0067082Y0091975D01*
X0067068Y0092022D01*
X0067058Y0092070D01*
X0067052Y0092118D01*
X0067050Y0092167D01*
X0066656Y0106761D02*
X0067444Y0106761D01*
X0071381Y0106761D02*
X0072562Y0106761D01*
X0076499Y0106761D02*
X0076893Y0106761D01*
X0076893Y0118572D01*
X0076499Y0118572D01*
X0072562Y0118572D02*
X0071381Y0118572D01*
X0067444Y0118572D02*
X0066656Y0118572D01*
X0062719Y0118572D02*
X0061538Y0118572D01*
X0057601Y0118572D02*
X0057207Y0118572D01*
X0057207Y0106761D01*
X0057601Y0106761D01*
X0061538Y0106761D02*
X0062719Y0106761D01*
X0091971Y0117430D02*
X0091971Y0137903D01*
X0132129Y0137903D01*
X0132129Y0117430D01*
X0091971Y0117430D01*
X0090239Y0180856D02*
X0090239Y0204478D01*
X0095357Y0204478D01*
X0095357Y0180856D02*
X0090239Y0180856D01*
X0108743Y0180856D02*
X0113861Y0180856D01*
X0113861Y0204478D01*
X0108743Y0204478D01*
X0122050Y0205167D02*
X0122050Y0200167D01*
X0124550Y0197667D01*
X0122050Y0195167D01*
X0122050Y0190167D01*
X0124550Y0187667D01*
X0129550Y0187667D01*
X0132050Y0190167D01*
X0132050Y0195167D01*
X0129550Y0197667D01*
X0132050Y0200167D01*
X0132050Y0205167D01*
X0129550Y0207667D01*
X0132050Y0210167D01*
X0132050Y0215167D01*
X0129550Y0217667D01*
X0132050Y0220167D01*
X0132050Y0225167D01*
X0129550Y0227667D01*
X0124550Y0227667D01*
X0122050Y0225167D01*
X0122050Y0220167D01*
X0124550Y0217667D01*
X0122050Y0215167D01*
X0122050Y0210167D01*
X0124550Y0207667D01*
X0122050Y0205167D01*
X0017550Y0205167D02*
X0017550Y0200167D01*
X0015050Y0197667D01*
X0010050Y0197667D01*
X0007550Y0200167D01*
X0007550Y0205167D01*
X0010050Y0207667D01*
X0015050Y0207667D01*
X0017550Y0205167D01*
X0015050Y0207667D02*
X0017550Y0210167D01*
X0017550Y0215167D01*
X0015050Y0217667D01*
X0010050Y0217667D01*
X0007550Y0220167D01*
X0007550Y0225167D01*
X0010050Y0227667D01*
X0015050Y0227667D01*
X0017550Y0225167D01*
X0017550Y0220167D01*
X0015050Y0217667D01*
X0010050Y0217667D02*
X0007550Y0215167D01*
X0007550Y0210167D01*
X0010050Y0207667D01*
X0010050Y0197667D02*
X0007550Y0195167D01*
X0007550Y0190167D01*
X0010050Y0187667D01*
X0015050Y0187667D01*
X0017550Y0185167D01*
X0017550Y0180167D01*
X0015050Y0177667D01*
X0010050Y0177667D01*
X0007550Y0180167D01*
X0007550Y0185167D01*
X0010050Y0187667D01*
X0015050Y0187667D02*
X0017550Y0190167D01*
X0017550Y0195167D01*
X0015050Y0197667D01*
X0015050Y0177667D02*
X0017550Y0175167D01*
X0017550Y0170167D01*
X0015050Y0167667D01*
X0010050Y0167667D01*
X0007550Y0170167D01*
X0007550Y0175167D01*
X0010050Y0177667D01*
D11*
X0095515Y0121269D03*
D12*
X0034349Y0119474D02*
X0034349Y0105852D01*
X0009751Y0105852D01*
X0009751Y0119474D01*
X0034349Y0119474D01*
X0023550Y0069667D02*
X0023550Y0045667D01*
X0020050Y0055167D02*
X0017050Y0055167D01*
X0017050Y0052667D01*
X0017050Y0055167D02*
X0014050Y0055167D01*
X0014050Y0056667D02*
X0014050Y0058667D01*
X0020050Y0058667D01*
X0020050Y0056667D01*
X0014050Y0056667D01*
X0014050Y0060167D02*
X0017050Y0060167D01*
X0017050Y0062667D01*
X0017050Y0060167D02*
X0020050Y0060167D01*
X0023550Y0069667D02*
X0023548Y0069827D01*
X0023542Y0069986D01*
X0023532Y0070145D01*
X0023519Y0070304D01*
X0023501Y0070463D01*
X0023480Y0070621D01*
X0023454Y0070778D01*
X0023425Y0070935D01*
X0023392Y0071091D01*
X0023355Y0071246D01*
X0023315Y0071401D01*
X0023270Y0071554D01*
X0023222Y0071706D01*
X0023170Y0071857D01*
X0023114Y0072006D01*
X0023055Y0072154D01*
X0022992Y0072301D01*
X0022926Y0072446D01*
X0022856Y0072589D01*
X0022782Y0072731D01*
X0022706Y0072871D01*
X0022625Y0073009D01*
X0022542Y0073144D01*
X0022455Y0073278D01*
X0022364Y0073410D01*
X0022271Y0073539D01*
X0022174Y0073666D01*
X0022075Y0073791D01*
X0021972Y0073913D01*
X0021866Y0074032D01*
X0021758Y0074149D01*
X0021646Y0074263D01*
X0021532Y0074375D01*
X0021415Y0074483D01*
X0021296Y0074589D01*
X0021174Y0074692D01*
X0021049Y0074791D01*
X0020922Y0074888D01*
X0020793Y0074981D01*
X0020661Y0075072D01*
X0020527Y0075159D01*
X0020392Y0075242D01*
X0020254Y0075323D01*
X0020114Y0075399D01*
X0019972Y0075473D01*
X0019829Y0075543D01*
X0019684Y0075609D01*
X0019537Y0075672D01*
X0019389Y0075731D01*
X0019240Y0075787D01*
X0019089Y0075839D01*
X0018937Y0075887D01*
X0018784Y0075932D01*
X0018629Y0075972D01*
X0018474Y0076009D01*
X0018318Y0076042D01*
X0018161Y0076071D01*
X0018004Y0076097D01*
X0017846Y0076118D01*
X0017687Y0076136D01*
X0017528Y0076149D01*
X0017369Y0076159D01*
X0017210Y0076165D01*
X0017050Y0076167D01*
X0016890Y0076165D01*
X0016731Y0076159D01*
X0016572Y0076149D01*
X0016413Y0076136D01*
X0016254Y0076118D01*
X0016096Y0076097D01*
X0015939Y0076071D01*
X0015782Y0076042D01*
X0015626Y0076009D01*
X0015471Y0075972D01*
X0015316Y0075932D01*
X0015163Y0075887D01*
X0015011Y0075839D01*
X0014860Y0075787D01*
X0014711Y0075731D01*
X0014563Y0075672D01*
X0014416Y0075609D01*
X0014271Y0075543D01*
X0014128Y0075473D01*
X0013986Y0075399D01*
X0013846Y0075323D01*
X0013708Y0075242D01*
X0013573Y0075159D01*
X0013439Y0075072D01*
X0013307Y0074981D01*
X0013178Y0074888D01*
X0013051Y0074791D01*
X0012926Y0074692D01*
X0012804Y0074589D01*
X0012685Y0074483D01*
X0012568Y0074375D01*
X0012454Y0074263D01*
X0012342Y0074149D01*
X0012234Y0074032D01*
X0012128Y0073913D01*
X0012025Y0073791D01*
X0011926Y0073666D01*
X0011829Y0073539D01*
X0011736Y0073410D01*
X0011645Y0073278D01*
X0011558Y0073144D01*
X0011475Y0073009D01*
X0011394Y0072871D01*
X0011318Y0072731D01*
X0011244Y0072589D01*
X0011174Y0072446D01*
X0011108Y0072301D01*
X0011045Y0072154D01*
X0010986Y0072006D01*
X0010930Y0071857D01*
X0010878Y0071706D01*
X0010830Y0071554D01*
X0010785Y0071401D01*
X0010745Y0071246D01*
X0010708Y0071091D01*
X0010675Y0070935D01*
X0010646Y0070778D01*
X0010620Y0070621D01*
X0010599Y0070463D01*
X0010581Y0070304D01*
X0010568Y0070145D01*
X0010558Y0069986D01*
X0010552Y0069827D01*
X0010550Y0069667D01*
X0010550Y0045667D01*
X0010552Y0045507D01*
X0010558Y0045348D01*
X0010568Y0045189D01*
X0010581Y0045030D01*
X0010599Y0044871D01*
X0010620Y0044713D01*
X0010646Y0044556D01*
X0010675Y0044399D01*
X0010708Y0044243D01*
X0010745Y0044088D01*
X0010785Y0043933D01*
X0010830Y0043780D01*
X0010878Y0043628D01*
X0010930Y0043477D01*
X0010986Y0043328D01*
X0011045Y0043180D01*
X0011108Y0043033D01*
X0011174Y0042888D01*
X0011244Y0042745D01*
X0011318Y0042603D01*
X0011394Y0042463D01*
X0011475Y0042325D01*
X0011558Y0042190D01*
X0011645Y0042056D01*
X0011736Y0041924D01*
X0011829Y0041795D01*
X0011926Y0041668D01*
X0012025Y0041543D01*
X0012128Y0041421D01*
X0012234Y0041302D01*
X0012342Y0041185D01*
X0012454Y0041071D01*
X0012568Y0040959D01*
X0012685Y0040851D01*
X0012804Y0040745D01*
X0012926Y0040642D01*
X0013051Y0040543D01*
X0013178Y0040446D01*
X0013307Y0040353D01*
X0013439Y0040262D01*
X0013573Y0040175D01*
X0013708Y0040092D01*
X0013846Y0040011D01*
X0013986Y0039935D01*
X0014128Y0039861D01*
X0014271Y0039791D01*
X0014416Y0039725D01*
X0014563Y0039662D01*
X0014711Y0039603D01*
X0014860Y0039547D01*
X0015011Y0039495D01*
X0015163Y0039447D01*
X0015316Y0039402D01*
X0015471Y0039362D01*
X0015626Y0039325D01*
X0015782Y0039292D01*
X0015939Y0039263D01*
X0016096Y0039237D01*
X0016254Y0039216D01*
X0016413Y0039198D01*
X0016572Y0039185D01*
X0016731Y0039175D01*
X0016890Y0039169D01*
X0017050Y0039167D01*
X0017210Y0039169D01*
X0017369Y0039175D01*
X0017528Y0039185D01*
X0017687Y0039198D01*
X0017846Y0039216D01*
X0018004Y0039237D01*
X0018161Y0039263D01*
X0018318Y0039292D01*
X0018474Y0039325D01*
X0018629Y0039362D01*
X0018784Y0039402D01*
X0018937Y0039447D01*
X0019089Y0039495D01*
X0019240Y0039547D01*
X0019389Y0039603D01*
X0019537Y0039662D01*
X0019684Y0039725D01*
X0019829Y0039791D01*
X0019972Y0039861D01*
X0020114Y0039935D01*
X0020254Y0040011D01*
X0020392Y0040092D01*
X0020527Y0040175D01*
X0020661Y0040262D01*
X0020793Y0040353D01*
X0020922Y0040446D01*
X0021049Y0040543D01*
X0021174Y0040642D01*
X0021296Y0040745D01*
X0021415Y0040851D01*
X0021532Y0040959D01*
X0021646Y0041071D01*
X0021758Y0041185D01*
X0021866Y0041302D01*
X0021972Y0041421D01*
X0022075Y0041543D01*
X0022174Y0041668D01*
X0022271Y0041795D01*
X0022364Y0041924D01*
X0022455Y0042056D01*
X0022542Y0042190D01*
X0022625Y0042325D01*
X0022706Y0042463D01*
X0022782Y0042603D01*
X0022856Y0042745D01*
X0022926Y0042888D01*
X0022992Y0043033D01*
X0023055Y0043180D01*
X0023114Y0043328D01*
X0023170Y0043477D01*
X0023222Y0043628D01*
X0023270Y0043780D01*
X0023315Y0043933D01*
X0023355Y0044088D01*
X0023392Y0044243D01*
X0023425Y0044399D01*
X0023454Y0044556D01*
X0023480Y0044713D01*
X0023501Y0044871D01*
X0023519Y0045030D01*
X0023532Y0045189D01*
X0023542Y0045348D01*
X0023548Y0045507D01*
X0023550Y0045667D01*
D13*
X0059343Y0139881D03*
X0064757Y0139881D03*
X0079343Y0139881D03*
X0084757Y0139881D03*
D14*
X0082050Y0138356D03*
X0062050Y0138356D03*
X0067739Y0047667D03*
X0116361Y0047667D03*
D15*
X0114835Y0050373D03*
X0114835Y0044960D03*
X0069265Y0044960D03*
X0069265Y0050373D03*
D16*
X0008550Y0045667D02*
X0008550Y0069667D01*
X0008553Y0069874D01*
X0008560Y0070081D01*
X0008573Y0070287D01*
X0008590Y0070494D01*
X0008613Y0070699D01*
X0008641Y0070905D01*
X0008673Y0071109D01*
X0008711Y0071313D01*
X0008753Y0071515D01*
X0008801Y0071717D01*
X0008853Y0071917D01*
X0008910Y0072116D01*
X0008972Y0072313D01*
X0009039Y0072509D01*
X0009111Y0072703D01*
X0009187Y0072896D01*
X0009268Y0073086D01*
X0009354Y0073275D01*
X0009444Y0073461D01*
X0009538Y0073645D01*
X0009638Y0073827D01*
X0009741Y0074006D01*
X0009849Y0074183D01*
X0009961Y0074357D01*
X0010077Y0074528D01*
X0010198Y0074697D01*
X0010322Y0074862D01*
X0010451Y0075024D01*
X0010583Y0075183D01*
X0010719Y0075339D01*
X0010859Y0075492D01*
X0011003Y0075641D01*
X0011150Y0075786D01*
X0011301Y0075928D01*
X0011455Y0076066D01*
X0011613Y0076201D01*
X0011773Y0076331D01*
X0011937Y0076457D01*
X0012104Y0076580D01*
X0012274Y0076698D01*
X0012447Y0076813D01*
X0012622Y0076923D01*
X0012800Y0077028D01*
X0012981Y0077130D01*
X0013163Y0077226D01*
X0013349Y0077319D01*
X0013536Y0077407D01*
X0013726Y0077490D01*
X0013917Y0077569D01*
X0014110Y0077643D01*
X0014306Y0077712D01*
X0014502Y0077776D01*
X0014700Y0077836D01*
X0014900Y0077891D01*
X0015101Y0077941D01*
X0015303Y0077986D01*
X0015506Y0078026D01*
X0015710Y0078061D01*
X0015915Y0078091D01*
X0016120Y0078116D01*
X0016326Y0078136D01*
X0016533Y0078151D01*
X0016740Y0078161D01*
X0016947Y0078166D01*
X0017153Y0078166D01*
X0017360Y0078161D01*
X0017567Y0078151D01*
X0017774Y0078136D01*
X0017980Y0078116D01*
X0018185Y0078091D01*
X0018390Y0078061D01*
X0018594Y0078026D01*
X0018797Y0077986D01*
X0018999Y0077941D01*
X0019200Y0077891D01*
X0019400Y0077836D01*
X0019598Y0077776D01*
X0019794Y0077712D01*
X0019990Y0077643D01*
X0020183Y0077569D01*
X0020374Y0077490D01*
X0020564Y0077407D01*
X0020751Y0077319D01*
X0020937Y0077226D01*
X0021119Y0077130D01*
X0021300Y0077028D01*
X0021478Y0076923D01*
X0021653Y0076813D01*
X0021826Y0076698D01*
X0021996Y0076580D01*
X0022163Y0076457D01*
X0022327Y0076331D01*
X0022487Y0076201D01*
X0022645Y0076066D01*
X0022799Y0075928D01*
X0022950Y0075786D01*
X0023097Y0075641D01*
X0023241Y0075492D01*
X0023381Y0075339D01*
X0023517Y0075183D01*
X0023649Y0075024D01*
X0023778Y0074862D01*
X0023902Y0074697D01*
X0024023Y0074528D01*
X0024139Y0074357D01*
X0024251Y0074183D01*
X0024359Y0074006D01*
X0024462Y0073827D01*
X0024562Y0073645D01*
X0024656Y0073461D01*
X0024746Y0073275D01*
X0024832Y0073086D01*
X0024913Y0072896D01*
X0024989Y0072703D01*
X0025061Y0072509D01*
X0025128Y0072313D01*
X0025190Y0072116D01*
X0025247Y0071917D01*
X0025299Y0071717D01*
X0025347Y0071515D01*
X0025389Y0071313D01*
X0025427Y0071109D01*
X0025459Y0070905D01*
X0025487Y0070699D01*
X0025510Y0070494D01*
X0025527Y0070287D01*
X0025540Y0070081D01*
X0025547Y0069874D01*
X0025550Y0069667D01*
X0025550Y0045667D01*
X0025547Y0045460D01*
X0025540Y0045253D01*
X0025527Y0045047D01*
X0025510Y0044840D01*
X0025487Y0044635D01*
X0025459Y0044429D01*
X0025427Y0044225D01*
X0025389Y0044021D01*
X0025347Y0043819D01*
X0025299Y0043617D01*
X0025247Y0043417D01*
X0025190Y0043218D01*
X0025128Y0043021D01*
X0025061Y0042825D01*
X0024989Y0042631D01*
X0024913Y0042438D01*
X0024832Y0042248D01*
X0024746Y0042059D01*
X0024656Y0041873D01*
X0024562Y0041689D01*
X0024462Y0041507D01*
X0024359Y0041328D01*
X0024251Y0041151D01*
X0024139Y0040977D01*
X0024023Y0040806D01*
X0023902Y0040637D01*
X0023778Y0040472D01*
X0023649Y0040310D01*
X0023517Y0040151D01*
X0023381Y0039995D01*
X0023241Y0039842D01*
X0023097Y0039693D01*
X0022950Y0039548D01*
X0022799Y0039406D01*
X0022645Y0039268D01*
X0022487Y0039133D01*
X0022327Y0039003D01*
X0022163Y0038877D01*
X0021996Y0038754D01*
X0021826Y0038636D01*
X0021653Y0038521D01*
X0021478Y0038411D01*
X0021300Y0038306D01*
X0021119Y0038204D01*
X0020937Y0038108D01*
X0020751Y0038015D01*
X0020564Y0037927D01*
X0020374Y0037844D01*
X0020183Y0037765D01*
X0019990Y0037691D01*
X0019794Y0037622D01*
X0019598Y0037558D01*
X0019400Y0037498D01*
X0019200Y0037443D01*
X0018999Y0037393D01*
X0018797Y0037348D01*
X0018594Y0037308D01*
X0018390Y0037273D01*
X0018185Y0037243D01*
X0017980Y0037218D01*
X0017774Y0037198D01*
X0017567Y0037183D01*
X0017360Y0037173D01*
X0017153Y0037168D01*
X0016947Y0037168D01*
X0016740Y0037173D01*
X0016533Y0037183D01*
X0016326Y0037198D01*
X0016120Y0037218D01*
X0015915Y0037243D01*
X0015710Y0037273D01*
X0015506Y0037308D01*
X0015303Y0037348D01*
X0015101Y0037393D01*
X0014900Y0037443D01*
X0014700Y0037498D01*
X0014502Y0037558D01*
X0014306Y0037622D01*
X0014110Y0037691D01*
X0013917Y0037765D01*
X0013726Y0037844D01*
X0013536Y0037927D01*
X0013349Y0038015D01*
X0013163Y0038108D01*
X0012981Y0038204D01*
X0012800Y0038306D01*
X0012622Y0038411D01*
X0012447Y0038521D01*
X0012274Y0038636D01*
X0012104Y0038754D01*
X0011937Y0038877D01*
X0011773Y0039003D01*
X0011613Y0039133D01*
X0011455Y0039268D01*
X0011301Y0039406D01*
X0011150Y0039548D01*
X0011003Y0039693D01*
X0010859Y0039842D01*
X0010719Y0039995D01*
X0010583Y0040151D01*
X0010451Y0040310D01*
X0010322Y0040472D01*
X0010198Y0040637D01*
X0010077Y0040806D01*
X0009961Y0040977D01*
X0009849Y0041151D01*
X0009741Y0041328D01*
X0009638Y0041507D01*
X0009538Y0041689D01*
X0009444Y0041873D01*
X0009354Y0042059D01*
X0009268Y0042248D01*
X0009187Y0042438D01*
X0009111Y0042631D01*
X0009039Y0042825D01*
X0008972Y0043021D01*
X0008910Y0043218D01*
X0008853Y0043417D01*
X0008801Y0043617D01*
X0008753Y0043819D01*
X0008711Y0044021D01*
X0008673Y0044225D01*
X0008641Y0044429D01*
X0008613Y0044635D01*
X0008590Y0044840D01*
X0008573Y0045047D01*
X0008560Y0045253D01*
X0008553Y0045460D01*
X0008550Y0045667D01*
D17*
X0041144Y0081761D02*
X0041144Y0093572D01*
X0050846Y0093572D01*
X0052956Y0091462D01*
X0052956Y0081761D01*
X0041144Y0081761D01*
X0076302Y0032509D02*
X0076302Y0024635D01*
X0076302Y0032509D02*
X0085160Y0032509D01*
X0083192Y0012824D02*
X0100908Y0012824D01*
X0107798Y0024635D02*
X0107798Y0032509D01*
X0098940Y0032509D01*
X0076018Y0120767D02*
X0076020Y0120817D01*
X0076026Y0120866D01*
X0076035Y0120915D01*
X0076049Y0120962D01*
X0076066Y0121009D01*
X0076087Y0121054D01*
X0076111Y0121097D01*
X0076139Y0121138D01*
X0076169Y0121177D01*
X0076203Y0121214D01*
X0076240Y0121248D01*
X0076279Y0121278D01*
X0076320Y0121306D01*
X0076363Y0121330D01*
X0076408Y0121351D01*
X0076455Y0121368D01*
X0076502Y0121382D01*
X0076551Y0121391D01*
X0076600Y0121397D01*
X0076650Y0121399D01*
X0076700Y0121397D01*
X0076749Y0121391D01*
X0076798Y0121382D01*
X0076845Y0121368D01*
X0076892Y0121351D01*
X0076937Y0121330D01*
X0076980Y0121306D01*
X0077021Y0121278D01*
X0077060Y0121248D01*
X0077097Y0121214D01*
X0077131Y0121177D01*
X0077161Y0121138D01*
X0077189Y0121097D01*
X0077213Y0121054D01*
X0077234Y0121009D01*
X0077251Y0120962D01*
X0077265Y0120915D01*
X0077274Y0120866D01*
X0077280Y0120817D01*
X0077282Y0120767D01*
X0077280Y0120717D01*
X0077274Y0120668D01*
X0077265Y0120619D01*
X0077251Y0120572D01*
X0077234Y0120525D01*
X0077213Y0120480D01*
X0077189Y0120437D01*
X0077161Y0120396D01*
X0077131Y0120357D01*
X0077097Y0120320D01*
X0077060Y0120286D01*
X0077021Y0120256D01*
X0076980Y0120228D01*
X0076937Y0120204D01*
X0076892Y0120183D01*
X0076845Y0120166D01*
X0076798Y0120152D01*
X0076749Y0120143D01*
X0076700Y0120137D01*
X0076650Y0120135D01*
X0076600Y0120137D01*
X0076551Y0120143D01*
X0076502Y0120152D01*
X0076455Y0120166D01*
X0076408Y0120183D01*
X0076363Y0120204D01*
X0076320Y0120228D01*
X0076279Y0120256D01*
X0076240Y0120286D01*
X0076203Y0120320D01*
X0076169Y0120357D01*
X0076139Y0120396D01*
X0076111Y0120437D01*
X0076087Y0120480D01*
X0076066Y0120525D01*
X0076049Y0120572D01*
X0076035Y0120619D01*
X0076026Y0120668D01*
X0076020Y0120717D01*
X0076018Y0120767D01*
X0077050Y0187824D02*
X0077050Y0244517D01*
X0073113Y0244517D01*
X0075475Y0245541D02*
X0075473Y0245676D01*
X0075467Y0245811D01*
X0075458Y0245945D01*
X0075444Y0246079D01*
X0075427Y0246213D01*
X0075406Y0246347D01*
X0075381Y0246479D01*
X0075352Y0246611D01*
X0075320Y0246742D01*
X0075284Y0246872D01*
X0075244Y0247001D01*
X0075200Y0247128D01*
X0075153Y0247255D01*
X0075102Y0247380D01*
X0075048Y0247503D01*
X0074990Y0247625D01*
X0074929Y0247746D01*
X0074864Y0247864D01*
X0074796Y0247980D01*
X0074725Y0248095D01*
X0074651Y0248207D01*
X0074573Y0248318D01*
X0074492Y0248426D01*
X0074408Y0248531D01*
X0074321Y0248635D01*
X0074231Y0248735D01*
X0074139Y0248833D01*
X0074043Y0248929D01*
X0073945Y0249021D01*
X0073845Y0249111D01*
X0073741Y0249198D01*
X0073636Y0249282D01*
X0073528Y0249363D01*
X0073417Y0249441D01*
X0073305Y0249515D01*
X0073190Y0249586D01*
X0073074Y0249654D01*
X0072956Y0249719D01*
X0072835Y0249780D01*
X0072713Y0249838D01*
X0072590Y0249892D01*
X0072465Y0249943D01*
X0072338Y0249990D01*
X0072211Y0250034D01*
X0072082Y0250074D01*
X0071952Y0250110D01*
X0071821Y0250142D01*
X0071689Y0250171D01*
X0071557Y0250196D01*
X0071423Y0250217D01*
X0071289Y0250234D01*
X0071155Y0250248D01*
X0071021Y0250257D01*
X0070886Y0250263D01*
X0070751Y0250265D01*
X0034530Y0250265D01*
X0034531Y0253809D02*
X0034396Y0253818D01*
X0034260Y0253823D01*
X0034125Y0253825D01*
X0033990Y0253823D01*
X0033854Y0253817D01*
X0033719Y0253807D01*
X0033585Y0253793D01*
X0033450Y0253775D01*
X0033317Y0253753D01*
X0033184Y0253728D01*
X0033051Y0253699D01*
X0032920Y0253666D01*
X0032790Y0253630D01*
X0032661Y0253589D01*
X0032532Y0253545D01*
X0032406Y0253498D01*
X0032280Y0253446D01*
X0032157Y0253392D01*
X0032034Y0253333D01*
X0031914Y0253271D01*
X0031795Y0253206D01*
X0031678Y0253138D01*
X0031564Y0253066D01*
X0031451Y0252991D01*
X0031341Y0252912D01*
X0031232Y0252831D01*
X0031127Y0252747D01*
X0031023Y0252659D01*
X0030922Y0252569D01*
X0030824Y0252476D01*
X0030729Y0252380D01*
X0030636Y0252281D01*
X0030546Y0252180D01*
X0030459Y0252076D01*
X0030375Y0251970D01*
X0030294Y0251861D01*
X0030217Y0251750D01*
X0030142Y0251637D01*
X0030071Y0251522D01*
X0030003Y0251405D01*
X0029938Y0251286D01*
X0029877Y0251165D01*
X0029819Y0251043D01*
X0029765Y0250918D01*
X0029715Y0250793D01*
X0029668Y0250666D01*
X0029624Y0250538D01*
X0029585Y0250408D01*
X0029549Y0250278D01*
X0029516Y0250146D01*
X0029488Y0250014D01*
X0029463Y0249881D01*
X0029443Y0249747D01*
X0029426Y0249612D01*
X0029412Y0249478D01*
X0025869Y0247273D02*
X0025871Y0247116D01*
X0025877Y0246959D01*
X0025887Y0246802D01*
X0025900Y0246646D01*
X0025918Y0246490D01*
X0025939Y0246334D01*
X0025965Y0246179D01*
X0025994Y0246025D01*
X0026027Y0245871D01*
X0026064Y0245719D01*
X0026104Y0245567D01*
X0026149Y0245416D01*
X0026197Y0245267D01*
X0026249Y0245119D01*
X0026304Y0244972D01*
X0026364Y0244826D01*
X0026426Y0244682D01*
X0026493Y0244540D01*
X0026563Y0244399D01*
X0026636Y0244260D01*
X0026713Y0244124D01*
X0026793Y0243988D01*
X0026877Y0243856D01*
X0026964Y0243725D01*
X0027054Y0243596D01*
X0027147Y0243470D01*
X0027243Y0243346D01*
X0027343Y0243224D01*
X0027445Y0243105D01*
X0027551Y0242989D01*
X0027659Y0242875D01*
X0027770Y0242764D01*
X0027884Y0242656D01*
X0028000Y0242550D01*
X0028119Y0242448D01*
X0028241Y0242348D01*
X0028365Y0242252D01*
X0028491Y0242159D01*
X0028620Y0242069D01*
X0028751Y0241982D01*
X0028883Y0241898D01*
X0029019Y0241818D01*
X0029155Y0241741D01*
X0029294Y0241668D01*
X0029435Y0241598D01*
X0029577Y0241531D01*
X0029721Y0241469D01*
X0029867Y0241409D01*
X0030014Y0241354D01*
X0030162Y0241302D01*
X0030311Y0241254D01*
X0030462Y0241209D01*
X0030614Y0241169D01*
X0030766Y0241132D01*
X0030920Y0241099D01*
X0031074Y0241070D01*
X0031229Y0241044D01*
X0031385Y0241023D01*
X0031541Y0241005D01*
X0031697Y0240992D01*
X0031854Y0240982D01*
X0032011Y0240976D01*
X0032168Y0240974D01*
X0070357Y0240974D01*
X0070466Y0240989D01*
X0070575Y0241009D01*
X0070684Y0241032D01*
X0070791Y0241059D01*
X0070898Y0241090D01*
X0071003Y0241124D01*
X0071107Y0241162D01*
X0071210Y0241204D01*
X0071311Y0241249D01*
X0071410Y0241298D01*
X0071508Y0241350D01*
X0071604Y0241406D01*
X0071697Y0241465D01*
X0071789Y0241527D01*
X0071879Y0241592D01*
X0071966Y0241661D01*
X0072051Y0241732D01*
X0072133Y0241806D01*
X0072212Y0241884D01*
X0072289Y0241963D01*
X0072363Y0242046D01*
X0072434Y0242131D01*
X0072502Y0242218D01*
X0072567Y0242308D01*
X0072629Y0242400D01*
X0072687Y0242494D01*
X0072742Y0242590D01*
X0072794Y0242688D01*
X0072843Y0242788D01*
X0072887Y0242889D01*
X0072929Y0242992D01*
X0072966Y0243096D01*
X0073000Y0243202D01*
X0073031Y0243308D01*
X0073057Y0243416D01*
X0073080Y0243524D01*
X0073099Y0243633D01*
X0073114Y0243743D01*
X0073126Y0243853D01*
X0073133Y0243964D01*
X0073137Y0244075D01*
X0073136Y0244185D01*
X0073132Y0244296D01*
X0073124Y0244407D01*
X0073112Y0244517D01*
X0075475Y0249084D02*
X0075473Y0249219D01*
X0075467Y0249354D01*
X0075458Y0249488D01*
X0075444Y0249622D01*
X0075427Y0249756D01*
X0075406Y0249890D01*
X0075381Y0250022D01*
X0075352Y0250154D01*
X0075320Y0250285D01*
X0075284Y0250415D01*
X0075244Y0250544D01*
X0075200Y0250671D01*
X0075153Y0250798D01*
X0075102Y0250923D01*
X0075048Y0251046D01*
X0074990Y0251168D01*
X0074929Y0251289D01*
X0074864Y0251407D01*
X0074796Y0251523D01*
X0074725Y0251638D01*
X0074651Y0251750D01*
X0074573Y0251861D01*
X0074492Y0251969D01*
X0074408Y0252074D01*
X0074321Y0252178D01*
X0074231Y0252278D01*
X0074139Y0252376D01*
X0074043Y0252472D01*
X0073945Y0252564D01*
X0073845Y0252654D01*
X0073741Y0252741D01*
X0073636Y0252825D01*
X0073528Y0252906D01*
X0073417Y0252984D01*
X0073305Y0253058D01*
X0073190Y0253129D01*
X0073074Y0253197D01*
X0072956Y0253262D01*
X0072835Y0253323D01*
X0072713Y0253381D01*
X0072590Y0253435D01*
X0072465Y0253486D01*
X0072338Y0253533D01*
X0072211Y0253577D01*
X0072082Y0253617D01*
X0071952Y0253653D01*
X0071821Y0253685D01*
X0071689Y0253714D01*
X0071557Y0253739D01*
X0071423Y0253760D01*
X0071289Y0253777D01*
X0071155Y0253791D01*
X0071021Y0253800D01*
X0070886Y0253806D01*
X0070751Y0253808D01*
X0034530Y0253808D01*
X0034531Y0250266D02*
X0034396Y0250275D01*
X0034260Y0250280D01*
X0034125Y0250282D01*
X0033990Y0250280D01*
X0033854Y0250274D01*
X0033719Y0250264D01*
X0033585Y0250250D01*
X0033450Y0250232D01*
X0033317Y0250210D01*
X0033184Y0250185D01*
X0033051Y0250156D01*
X0032920Y0250123D01*
X0032790Y0250087D01*
X0032661Y0250046D01*
X0032532Y0250002D01*
X0032406Y0249955D01*
X0032280Y0249903D01*
X0032157Y0249849D01*
X0032034Y0249790D01*
X0031914Y0249728D01*
X0031795Y0249663D01*
X0031678Y0249595D01*
X0031564Y0249523D01*
X0031451Y0249448D01*
X0031341Y0249369D01*
X0031232Y0249288D01*
X0031127Y0249204D01*
X0031023Y0249116D01*
X0030922Y0249026D01*
X0030824Y0248933D01*
X0030729Y0248837D01*
X0030636Y0248738D01*
X0030546Y0248637D01*
X0030459Y0248533D01*
X0030375Y0248427D01*
X0030294Y0248318D01*
X0030217Y0248207D01*
X0030142Y0248094D01*
X0030071Y0247979D01*
X0030003Y0247862D01*
X0029938Y0247743D01*
X0029877Y0247622D01*
X0029819Y0247500D01*
X0029765Y0247375D01*
X0029715Y0247250D01*
X0029668Y0247123D01*
X0029624Y0246995D01*
X0029585Y0246865D01*
X0029549Y0246735D01*
X0029516Y0246603D01*
X0029488Y0246471D01*
X0029463Y0246338D01*
X0029443Y0246204D01*
X0029426Y0246069D01*
X0029412Y0245935D01*
X0025869Y0247273D02*
X0021932Y0247273D01*
X0021932Y0187824D01*
X0077050Y0187824D01*
X0075475Y0264045D02*
X0075473Y0264180D01*
X0075467Y0264315D01*
X0075458Y0264449D01*
X0075444Y0264583D01*
X0075427Y0264717D01*
X0075406Y0264851D01*
X0075381Y0264983D01*
X0075352Y0265115D01*
X0075320Y0265246D01*
X0075284Y0265376D01*
X0075244Y0265505D01*
X0075200Y0265632D01*
X0075153Y0265759D01*
X0075102Y0265884D01*
X0075048Y0266007D01*
X0074990Y0266129D01*
X0074929Y0266250D01*
X0074864Y0266368D01*
X0074796Y0266484D01*
X0074725Y0266599D01*
X0074651Y0266711D01*
X0074573Y0266822D01*
X0074492Y0266930D01*
X0074408Y0267035D01*
X0074321Y0267139D01*
X0074231Y0267239D01*
X0074139Y0267337D01*
X0074043Y0267433D01*
X0073945Y0267525D01*
X0073845Y0267615D01*
X0073741Y0267702D01*
X0073636Y0267786D01*
X0073528Y0267867D01*
X0073417Y0267945D01*
X0073305Y0268019D01*
X0073190Y0268090D01*
X0073074Y0268158D01*
X0072956Y0268223D01*
X0072835Y0268284D01*
X0072713Y0268342D01*
X0072590Y0268396D01*
X0072465Y0268447D01*
X0072338Y0268494D01*
X0072211Y0268538D01*
X0072082Y0268578D01*
X0071952Y0268614D01*
X0071821Y0268646D01*
X0071689Y0268675D01*
X0071557Y0268700D01*
X0071423Y0268721D01*
X0071289Y0268738D01*
X0071155Y0268752D01*
X0071021Y0268761D01*
X0070886Y0268767D01*
X0070751Y0268769D01*
X0034530Y0268769D01*
X0034531Y0268770D02*
X0034396Y0268779D01*
X0034260Y0268784D01*
X0034125Y0268786D01*
X0033990Y0268784D01*
X0033854Y0268778D01*
X0033719Y0268768D01*
X0033585Y0268754D01*
X0033450Y0268736D01*
X0033317Y0268714D01*
X0033184Y0268689D01*
X0033051Y0268660D01*
X0032920Y0268627D01*
X0032790Y0268591D01*
X0032661Y0268550D01*
X0032532Y0268506D01*
X0032406Y0268459D01*
X0032280Y0268407D01*
X0032157Y0268353D01*
X0032034Y0268294D01*
X0031914Y0268232D01*
X0031795Y0268167D01*
X0031678Y0268099D01*
X0031564Y0268027D01*
X0031451Y0267952D01*
X0031341Y0267873D01*
X0031232Y0267792D01*
X0031127Y0267708D01*
X0031023Y0267620D01*
X0030922Y0267530D01*
X0030824Y0267437D01*
X0030729Y0267341D01*
X0030636Y0267242D01*
X0030546Y0267141D01*
X0030459Y0267037D01*
X0030375Y0266931D01*
X0030294Y0266822D01*
X0030217Y0266711D01*
X0030142Y0266598D01*
X0030071Y0266483D01*
X0030003Y0266366D01*
X0029938Y0266247D01*
X0029877Y0266126D01*
X0029819Y0266004D01*
X0029765Y0265879D01*
X0029715Y0265754D01*
X0029668Y0265627D01*
X0029624Y0265499D01*
X0029585Y0265369D01*
X0029549Y0265239D01*
X0029516Y0265107D01*
X0029488Y0264975D01*
X0029463Y0264842D01*
X0029443Y0264708D01*
X0029426Y0264573D01*
X0029412Y0264439D01*
D18*
X0054550Y0095167D03*
D19*
X0078303Y0043869D02*
X0081572Y0043869D01*
X0098716Y0043869D02*
X0101985Y0043869D01*
X0100351Y0045503D02*
X0100351Y0042234D01*
M02*
