%
M48
M72
T01C0.01300
T02C0.03200
T03C0.04000
T04C0.12598
%
T01
X43450Y39267
X67450Y60267
X74650Y69267
X69850Y77667
X80650Y99267
X83050Y101667
X86650Y101667
X75250Y103467
X72250Y121467
X65050Y103467
X57250Y95667
X57250Y90267
X62050Y121467
X77650Y140067
X91450Y139467
X86050Y168267
X102250Y173067
X123850Y135867
X127450Y136467
X117850Y103467
X105850Y80667
X103450Y69267
X89650Y66867
X86650Y69867
X76450Y36867
X47050Y165867
X5050Y122667
X105850Y231867
T02
X17050Y67167
X17050Y48167
T03
X12050Y172667
X13050Y182667
X12050Y192667
X13050Y202667
X12050Y212667
X13050Y222667
X127050Y222667
X127050Y212667
X127050Y202667
X127050Y192667
T04
X12050Y22667
X12050Y237667
X122050Y22667
X127050Y237667
M30
