G75*
%MOIN*%
%OFA0B0*%
%FSLAX25Y25*%
%IPPOS*%
%LPD*%
%AMOC8*
5,1,8,0,0,1.08239X$1,22.5*
%
%ADD10C,0.00000*%
%ADD11R,0.06299X0.07087*%
%ADD12R,0.07087X0.06299*%
%ADD13R,0.07400X0.07400*%
%ADD14C,0.07400*%
%ADD15R,0.01575X0.05906*%
%ADD16R,0.05900X0.07900*%
%ADD17R,0.15000X0.07900*%
%ADD18R,0.01378X0.05512*%
%ADD19R,0.07087X0.07480*%
%ADD20R,0.07480X0.07480*%
%ADD21R,0.05906X0.05906*%
%ADD22C,0.04800*%
%ADD23R,0.06299X0.07874*%
%ADD24R,0.07874X0.06299*%
%ADD25R,0.07874X0.07874*%
%ADD26R,0.05512X0.07480*%
%ADD27R,0.07087X0.05512*%
%ADD28R,0.02756X0.05906*%
%ADD29R,0.00787X0.02362*%
%ADD30R,0.02362X0.00787*%
%ADD31C,0.03031*%
%ADD32R,0.05000X0.02200*%
%ADD33R,0.02200X0.05000*%
%ADD34R,0.01969X0.04724*%
%ADD35R,0.03937X0.21654*%
%ADD36R,0.06299X0.13386*%
%ADD37C,0.00600*%
%ADD38C,0.02700*%
D10*
X0002050Y0012667D02*
X0002050Y0252627D01*
X0135751Y0252627D01*
X0135751Y0012667D01*
X0002050Y0012667D01*
X0005751Y0022667D02*
X0005753Y0022825D01*
X0005759Y0022983D01*
X0005769Y0023141D01*
X0005783Y0023299D01*
X0005801Y0023456D01*
X0005822Y0023613D01*
X0005848Y0023769D01*
X0005878Y0023925D01*
X0005911Y0024080D01*
X0005949Y0024233D01*
X0005990Y0024386D01*
X0006035Y0024538D01*
X0006084Y0024689D01*
X0006137Y0024838D01*
X0006193Y0024986D01*
X0006253Y0025132D01*
X0006317Y0025277D01*
X0006385Y0025420D01*
X0006456Y0025562D01*
X0006530Y0025702D01*
X0006608Y0025839D01*
X0006690Y0025975D01*
X0006774Y0026109D01*
X0006863Y0026240D01*
X0006954Y0026369D01*
X0007049Y0026496D01*
X0007146Y0026621D01*
X0007247Y0026743D01*
X0007351Y0026862D01*
X0007458Y0026979D01*
X0007568Y0027093D01*
X0007681Y0027204D01*
X0007796Y0027313D01*
X0007914Y0027418D01*
X0008035Y0027520D01*
X0008158Y0027620D01*
X0008284Y0027716D01*
X0008412Y0027809D01*
X0008542Y0027899D01*
X0008675Y0027985D01*
X0008810Y0028069D01*
X0008946Y0028148D01*
X0009085Y0028225D01*
X0009226Y0028297D01*
X0009368Y0028367D01*
X0009512Y0028432D01*
X0009658Y0028494D01*
X0009805Y0028552D01*
X0009954Y0028607D01*
X0010104Y0028658D01*
X0010255Y0028705D01*
X0010407Y0028748D01*
X0010560Y0028787D01*
X0010715Y0028823D01*
X0010870Y0028854D01*
X0011026Y0028882D01*
X0011182Y0028906D01*
X0011339Y0028926D01*
X0011497Y0028942D01*
X0011654Y0028954D01*
X0011813Y0028962D01*
X0011971Y0028966D01*
X0012129Y0028966D01*
X0012287Y0028962D01*
X0012446Y0028954D01*
X0012603Y0028942D01*
X0012761Y0028926D01*
X0012918Y0028906D01*
X0013074Y0028882D01*
X0013230Y0028854D01*
X0013385Y0028823D01*
X0013540Y0028787D01*
X0013693Y0028748D01*
X0013845Y0028705D01*
X0013996Y0028658D01*
X0014146Y0028607D01*
X0014295Y0028552D01*
X0014442Y0028494D01*
X0014588Y0028432D01*
X0014732Y0028367D01*
X0014874Y0028297D01*
X0015015Y0028225D01*
X0015154Y0028148D01*
X0015290Y0028069D01*
X0015425Y0027985D01*
X0015558Y0027899D01*
X0015688Y0027809D01*
X0015816Y0027716D01*
X0015942Y0027620D01*
X0016065Y0027520D01*
X0016186Y0027418D01*
X0016304Y0027313D01*
X0016419Y0027204D01*
X0016532Y0027093D01*
X0016642Y0026979D01*
X0016749Y0026862D01*
X0016853Y0026743D01*
X0016954Y0026621D01*
X0017051Y0026496D01*
X0017146Y0026369D01*
X0017237Y0026240D01*
X0017326Y0026109D01*
X0017410Y0025975D01*
X0017492Y0025839D01*
X0017570Y0025702D01*
X0017644Y0025562D01*
X0017715Y0025420D01*
X0017783Y0025277D01*
X0017847Y0025132D01*
X0017907Y0024986D01*
X0017963Y0024838D01*
X0018016Y0024689D01*
X0018065Y0024538D01*
X0018110Y0024386D01*
X0018151Y0024233D01*
X0018189Y0024080D01*
X0018222Y0023925D01*
X0018252Y0023769D01*
X0018278Y0023613D01*
X0018299Y0023456D01*
X0018317Y0023299D01*
X0018331Y0023141D01*
X0018341Y0022983D01*
X0018347Y0022825D01*
X0018349Y0022667D01*
X0018347Y0022509D01*
X0018341Y0022351D01*
X0018331Y0022193D01*
X0018317Y0022035D01*
X0018299Y0021878D01*
X0018278Y0021721D01*
X0018252Y0021565D01*
X0018222Y0021409D01*
X0018189Y0021254D01*
X0018151Y0021101D01*
X0018110Y0020948D01*
X0018065Y0020796D01*
X0018016Y0020645D01*
X0017963Y0020496D01*
X0017907Y0020348D01*
X0017847Y0020202D01*
X0017783Y0020057D01*
X0017715Y0019914D01*
X0017644Y0019772D01*
X0017570Y0019632D01*
X0017492Y0019495D01*
X0017410Y0019359D01*
X0017326Y0019225D01*
X0017237Y0019094D01*
X0017146Y0018965D01*
X0017051Y0018838D01*
X0016954Y0018713D01*
X0016853Y0018591D01*
X0016749Y0018472D01*
X0016642Y0018355D01*
X0016532Y0018241D01*
X0016419Y0018130D01*
X0016304Y0018021D01*
X0016186Y0017916D01*
X0016065Y0017814D01*
X0015942Y0017714D01*
X0015816Y0017618D01*
X0015688Y0017525D01*
X0015558Y0017435D01*
X0015425Y0017349D01*
X0015290Y0017265D01*
X0015154Y0017186D01*
X0015015Y0017109D01*
X0014874Y0017037D01*
X0014732Y0016967D01*
X0014588Y0016902D01*
X0014442Y0016840D01*
X0014295Y0016782D01*
X0014146Y0016727D01*
X0013996Y0016676D01*
X0013845Y0016629D01*
X0013693Y0016586D01*
X0013540Y0016547D01*
X0013385Y0016511D01*
X0013230Y0016480D01*
X0013074Y0016452D01*
X0012918Y0016428D01*
X0012761Y0016408D01*
X0012603Y0016392D01*
X0012446Y0016380D01*
X0012287Y0016372D01*
X0012129Y0016368D01*
X0011971Y0016368D01*
X0011813Y0016372D01*
X0011654Y0016380D01*
X0011497Y0016392D01*
X0011339Y0016408D01*
X0011182Y0016428D01*
X0011026Y0016452D01*
X0010870Y0016480D01*
X0010715Y0016511D01*
X0010560Y0016547D01*
X0010407Y0016586D01*
X0010255Y0016629D01*
X0010104Y0016676D01*
X0009954Y0016727D01*
X0009805Y0016782D01*
X0009658Y0016840D01*
X0009512Y0016902D01*
X0009368Y0016967D01*
X0009226Y0017037D01*
X0009085Y0017109D01*
X0008946Y0017186D01*
X0008810Y0017265D01*
X0008675Y0017349D01*
X0008542Y0017435D01*
X0008412Y0017525D01*
X0008284Y0017618D01*
X0008158Y0017714D01*
X0008035Y0017814D01*
X0007914Y0017916D01*
X0007796Y0018021D01*
X0007681Y0018130D01*
X0007568Y0018241D01*
X0007458Y0018355D01*
X0007351Y0018472D01*
X0007247Y0018591D01*
X0007146Y0018713D01*
X0007049Y0018838D01*
X0006954Y0018965D01*
X0006863Y0019094D01*
X0006774Y0019225D01*
X0006690Y0019359D01*
X0006608Y0019495D01*
X0006530Y0019632D01*
X0006456Y0019772D01*
X0006385Y0019914D01*
X0006317Y0020057D01*
X0006253Y0020202D01*
X0006193Y0020348D01*
X0006137Y0020496D01*
X0006084Y0020645D01*
X0006035Y0020796D01*
X0005990Y0020948D01*
X0005949Y0021101D01*
X0005911Y0021254D01*
X0005878Y0021409D01*
X0005848Y0021565D01*
X0005822Y0021721D01*
X0005801Y0021878D01*
X0005783Y0022035D01*
X0005769Y0022193D01*
X0005759Y0022351D01*
X0005753Y0022509D01*
X0005751Y0022667D01*
X0005751Y0237667D02*
X0005753Y0237825D01*
X0005759Y0237983D01*
X0005769Y0238141D01*
X0005783Y0238299D01*
X0005801Y0238456D01*
X0005822Y0238613D01*
X0005848Y0238769D01*
X0005878Y0238925D01*
X0005911Y0239080D01*
X0005949Y0239233D01*
X0005990Y0239386D01*
X0006035Y0239538D01*
X0006084Y0239689D01*
X0006137Y0239838D01*
X0006193Y0239986D01*
X0006253Y0240132D01*
X0006317Y0240277D01*
X0006385Y0240420D01*
X0006456Y0240562D01*
X0006530Y0240702D01*
X0006608Y0240839D01*
X0006690Y0240975D01*
X0006774Y0241109D01*
X0006863Y0241240D01*
X0006954Y0241369D01*
X0007049Y0241496D01*
X0007146Y0241621D01*
X0007247Y0241743D01*
X0007351Y0241862D01*
X0007458Y0241979D01*
X0007568Y0242093D01*
X0007681Y0242204D01*
X0007796Y0242313D01*
X0007914Y0242418D01*
X0008035Y0242520D01*
X0008158Y0242620D01*
X0008284Y0242716D01*
X0008412Y0242809D01*
X0008542Y0242899D01*
X0008675Y0242985D01*
X0008810Y0243069D01*
X0008946Y0243148D01*
X0009085Y0243225D01*
X0009226Y0243297D01*
X0009368Y0243367D01*
X0009512Y0243432D01*
X0009658Y0243494D01*
X0009805Y0243552D01*
X0009954Y0243607D01*
X0010104Y0243658D01*
X0010255Y0243705D01*
X0010407Y0243748D01*
X0010560Y0243787D01*
X0010715Y0243823D01*
X0010870Y0243854D01*
X0011026Y0243882D01*
X0011182Y0243906D01*
X0011339Y0243926D01*
X0011497Y0243942D01*
X0011654Y0243954D01*
X0011813Y0243962D01*
X0011971Y0243966D01*
X0012129Y0243966D01*
X0012287Y0243962D01*
X0012446Y0243954D01*
X0012603Y0243942D01*
X0012761Y0243926D01*
X0012918Y0243906D01*
X0013074Y0243882D01*
X0013230Y0243854D01*
X0013385Y0243823D01*
X0013540Y0243787D01*
X0013693Y0243748D01*
X0013845Y0243705D01*
X0013996Y0243658D01*
X0014146Y0243607D01*
X0014295Y0243552D01*
X0014442Y0243494D01*
X0014588Y0243432D01*
X0014732Y0243367D01*
X0014874Y0243297D01*
X0015015Y0243225D01*
X0015154Y0243148D01*
X0015290Y0243069D01*
X0015425Y0242985D01*
X0015558Y0242899D01*
X0015688Y0242809D01*
X0015816Y0242716D01*
X0015942Y0242620D01*
X0016065Y0242520D01*
X0016186Y0242418D01*
X0016304Y0242313D01*
X0016419Y0242204D01*
X0016532Y0242093D01*
X0016642Y0241979D01*
X0016749Y0241862D01*
X0016853Y0241743D01*
X0016954Y0241621D01*
X0017051Y0241496D01*
X0017146Y0241369D01*
X0017237Y0241240D01*
X0017326Y0241109D01*
X0017410Y0240975D01*
X0017492Y0240839D01*
X0017570Y0240702D01*
X0017644Y0240562D01*
X0017715Y0240420D01*
X0017783Y0240277D01*
X0017847Y0240132D01*
X0017907Y0239986D01*
X0017963Y0239838D01*
X0018016Y0239689D01*
X0018065Y0239538D01*
X0018110Y0239386D01*
X0018151Y0239233D01*
X0018189Y0239080D01*
X0018222Y0238925D01*
X0018252Y0238769D01*
X0018278Y0238613D01*
X0018299Y0238456D01*
X0018317Y0238299D01*
X0018331Y0238141D01*
X0018341Y0237983D01*
X0018347Y0237825D01*
X0018349Y0237667D01*
X0018347Y0237509D01*
X0018341Y0237351D01*
X0018331Y0237193D01*
X0018317Y0237035D01*
X0018299Y0236878D01*
X0018278Y0236721D01*
X0018252Y0236565D01*
X0018222Y0236409D01*
X0018189Y0236254D01*
X0018151Y0236101D01*
X0018110Y0235948D01*
X0018065Y0235796D01*
X0018016Y0235645D01*
X0017963Y0235496D01*
X0017907Y0235348D01*
X0017847Y0235202D01*
X0017783Y0235057D01*
X0017715Y0234914D01*
X0017644Y0234772D01*
X0017570Y0234632D01*
X0017492Y0234495D01*
X0017410Y0234359D01*
X0017326Y0234225D01*
X0017237Y0234094D01*
X0017146Y0233965D01*
X0017051Y0233838D01*
X0016954Y0233713D01*
X0016853Y0233591D01*
X0016749Y0233472D01*
X0016642Y0233355D01*
X0016532Y0233241D01*
X0016419Y0233130D01*
X0016304Y0233021D01*
X0016186Y0232916D01*
X0016065Y0232814D01*
X0015942Y0232714D01*
X0015816Y0232618D01*
X0015688Y0232525D01*
X0015558Y0232435D01*
X0015425Y0232349D01*
X0015290Y0232265D01*
X0015154Y0232186D01*
X0015015Y0232109D01*
X0014874Y0232037D01*
X0014732Y0231967D01*
X0014588Y0231902D01*
X0014442Y0231840D01*
X0014295Y0231782D01*
X0014146Y0231727D01*
X0013996Y0231676D01*
X0013845Y0231629D01*
X0013693Y0231586D01*
X0013540Y0231547D01*
X0013385Y0231511D01*
X0013230Y0231480D01*
X0013074Y0231452D01*
X0012918Y0231428D01*
X0012761Y0231408D01*
X0012603Y0231392D01*
X0012446Y0231380D01*
X0012287Y0231372D01*
X0012129Y0231368D01*
X0011971Y0231368D01*
X0011813Y0231372D01*
X0011654Y0231380D01*
X0011497Y0231392D01*
X0011339Y0231408D01*
X0011182Y0231428D01*
X0011026Y0231452D01*
X0010870Y0231480D01*
X0010715Y0231511D01*
X0010560Y0231547D01*
X0010407Y0231586D01*
X0010255Y0231629D01*
X0010104Y0231676D01*
X0009954Y0231727D01*
X0009805Y0231782D01*
X0009658Y0231840D01*
X0009512Y0231902D01*
X0009368Y0231967D01*
X0009226Y0232037D01*
X0009085Y0232109D01*
X0008946Y0232186D01*
X0008810Y0232265D01*
X0008675Y0232349D01*
X0008542Y0232435D01*
X0008412Y0232525D01*
X0008284Y0232618D01*
X0008158Y0232714D01*
X0008035Y0232814D01*
X0007914Y0232916D01*
X0007796Y0233021D01*
X0007681Y0233130D01*
X0007568Y0233241D01*
X0007458Y0233355D01*
X0007351Y0233472D01*
X0007247Y0233591D01*
X0007146Y0233713D01*
X0007049Y0233838D01*
X0006954Y0233965D01*
X0006863Y0234094D01*
X0006774Y0234225D01*
X0006690Y0234359D01*
X0006608Y0234495D01*
X0006530Y0234632D01*
X0006456Y0234772D01*
X0006385Y0234914D01*
X0006317Y0235057D01*
X0006253Y0235202D01*
X0006193Y0235348D01*
X0006137Y0235496D01*
X0006084Y0235645D01*
X0006035Y0235796D01*
X0005990Y0235948D01*
X0005949Y0236101D01*
X0005911Y0236254D01*
X0005878Y0236409D01*
X0005848Y0236565D01*
X0005822Y0236721D01*
X0005801Y0236878D01*
X0005783Y0237035D01*
X0005769Y0237193D01*
X0005759Y0237351D01*
X0005753Y0237509D01*
X0005751Y0237667D01*
X0115751Y0022667D02*
X0115753Y0022825D01*
X0115759Y0022983D01*
X0115769Y0023141D01*
X0115783Y0023299D01*
X0115801Y0023456D01*
X0115822Y0023613D01*
X0115848Y0023769D01*
X0115878Y0023925D01*
X0115911Y0024080D01*
X0115949Y0024233D01*
X0115990Y0024386D01*
X0116035Y0024538D01*
X0116084Y0024689D01*
X0116137Y0024838D01*
X0116193Y0024986D01*
X0116253Y0025132D01*
X0116317Y0025277D01*
X0116385Y0025420D01*
X0116456Y0025562D01*
X0116530Y0025702D01*
X0116608Y0025839D01*
X0116690Y0025975D01*
X0116774Y0026109D01*
X0116863Y0026240D01*
X0116954Y0026369D01*
X0117049Y0026496D01*
X0117146Y0026621D01*
X0117247Y0026743D01*
X0117351Y0026862D01*
X0117458Y0026979D01*
X0117568Y0027093D01*
X0117681Y0027204D01*
X0117796Y0027313D01*
X0117914Y0027418D01*
X0118035Y0027520D01*
X0118158Y0027620D01*
X0118284Y0027716D01*
X0118412Y0027809D01*
X0118542Y0027899D01*
X0118675Y0027985D01*
X0118810Y0028069D01*
X0118946Y0028148D01*
X0119085Y0028225D01*
X0119226Y0028297D01*
X0119368Y0028367D01*
X0119512Y0028432D01*
X0119658Y0028494D01*
X0119805Y0028552D01*
X0119954Y0028607D01*
X0120104Y0028658D01*
X0120255Y0028705D01*
X0120407Y0028748D01*
X0120560Y0028787D01*
X0120715Y0028823D01*
X0120870Y0028854D01*
X0121026Y0028882D01*
X0121182Y0028906D01*
X0121339Y0028926D01*
X0121497Y0028942D01*
X0121654Y0028954D01*
X0121813Y0028962D01*
X0121971Y0028966D01*
X0122129Y0028966D01*
X0122287Y0028962D01*
X0122446Y0028954D01*
X0122603Y0028942D01*
X0122761Y0028926D01*
X0122918Y0028906D01*
X0123074Y0028882D01*
X0123230Y0028854D01*
X0123385Y0028823D01*
X0123540Y0028787D01*
X0123693Y0028748D01*
X0123845Y0028705D01*
X0123996Y0028658D01*
X0124146Y0028607D01*
X0124295Y0028552D01*
X0124442Y0028494D01*
X0124588Y0028432D01*
X0124732Y0028367D01*
X0124874Y0028297D01*
X0125015Y0028225D01*
X0125154Y0028148D01*
X0125290Y0028069D01*
X0125425Y0027985D01*
X0125558Y0027899D01*
X0125688Y0027809D01*
X0125816Y0027716D01*
X0125942Y0027620D01*
X0126065Y0027520D01*
X0126186Y0027418D01*
X0126304Y0027313D01*
X0126419Y0027204D01*
X0126532Y0027093D01*
X0126642Y0026979D01*
X0126749Y0026862D01*
X0126853Y0026743D01*
X0126954Y0026621D01*
X0127051Y0026496D01*
X0127146Y0026369D01*
X0127237Y0026240D01*
X0127326Y0026109D01*
X0127410Y0025975D01*
X0127492Y0025839D01*
X0127570Y0025702D01*
X0127644Y0025562D01*
X0127715Y0025420D01*
X0127783Y0025277D01*
X0127847Y0025132D01*
X0127907Y0024986D01*
X0127963Y0024838D01*
X0128016Y0024689D01*
X0128065Y0024538D01*
X0128110Y0024386D01*
X0128151Y0024233D01*
X0128189Y0024080D01*
X0128222Y0023925D01*
X0128252Y0023769D01*
X0128278Y0023613D01*
X0128299Y0023456D01*
X0128317Y0023299D01*
X0128331Y0023141D01*
X0128341Y0022983D01*
X0128347Y0022825D01*
X0128349Y0022667D01*
X0128347Y0022509D01*
X0128341Y0022351D01*
X0128331Y0022193D01*
X0128317Y0022035D01*
X0128299Y0021878D01*
X0128278Y0021721D01*
X0128252Y0021565D01*
X0128222Y0021409D01*
X0128189Y0021254D01*
X0128151Y0021101D01*
X0128110Y0020948D01*
X0128065Y0020796D01*
X0128016Y0020645D01*
X0127963Y0020496D01*
X0127907Y0020348D01*
X0127847Y0020202D01*
X0127783Y0020057D01*
X0127715Y0019914D01*
X0127644Y0019772D01*
X0127570Y0019632D01*
X0127492Y0019495D01*
X0127410Y0019359D01*
X0127326Y0019225D01*
X0127237Y0019094D01*
X0127146Y0018965D01*
X0127051Y0018838D01*
X0126954Y0018713D01*
X0126853Y0018591D01*
X0126749Y0018472D01*
X0126642Y0018355D01*
X0126532Y0018241D01*
X0126419Y0018130D01*
X0126304Y0018021D01*
X0126186Y0017916D01*
X0126065Y0017814D01*
X0125942Y0017714D01*
X0125816Y0017618D01*
X0125688Y0017525D01*
X0125558Y0017435D01*
X0125425Y0017349D01*
X0125290Y0017265D01*
X0125154Y0017186D01*
X0125015Y0017109D01*
X0124874Y0017037D01*
X0124732Y0016967D01*
X0124588Y0016902D01*
X0124442Y0016840D01*
X0124295Y0016782D01*
X0124146Y0016727D01*
X0123996Y0016676D01*
X0123845Y0016629D01*
X0123693Y0016586D01*
X0123540Y0016547D01*
X0123385Y0016511D01*
X0123230Y0016480D01*
X0123074Y0016452D01*
X0122918Y0016428D01*
X0122761Y0016408D01*
X0122603Y0016392D01*
X0122446Y0016380D01*
X0122287Y0016372D01*
X0122129Y0016368D01*
X0121971Y0016368D01*
X0121813Y0016372D01*
X0121654Y0016380D01*
X0121497Y0016392D01*
X0121339Y0016408D01*
X0121182Y0016428D01*
X0121026Y0016452D01*
X0120870Y0016480D01*
X0120715Y0016511D01*
X0120560Y0016547D01*
X0120407Y0016586D01*
X0120255Y0016629D01*
X0120104Y0016676D01*
X0119954Y0016727D01*
X0119805Y0016782D01*
X0119658Y0016840D01*
X0119512Y0016902D01*
X0119368Y0016967D01*
X0119226Y0017037D01*
X0119085Y0017109D01*
X0118946Y0017186D01*
X0118810Y0017265D01*
X0118675Y0017349D01*
X0118542Y0017435D01*
X0118412Y0017525D01*
X0118284Y0017618D01*
X0118158Y0017714D01*
X0118035Y0017814D01*
X0117914Y0017916D01*
X0117796Y0018021D01*
X0117681Y0018130D01*
X0117568Y0018241D01*
X0117458Y0018355D01*
X0117351Y0018472D01*
X0117247Y0018591D01*
X0117146Y0018713D01*
X0117049Y0018838D01*
X0116954Y0018965D01*
X0116863Y0019094D01*
X0116774Y0019225D01*
X0116690Y0019359D01*
X0116608Y0019495D01*
X0116530Y0019632D01*
X0116456Y0019772D01*
X0116385Y0019914D01*
X0116317Y0020057D01*
X0116253Y0020202D01*
X0116193Y0020348D01*
X0116137Y0020496D01*
X0116084Y0020645D01*
X0116035Y0020796D01*
X0115990Y0020948D01*
X0115949Y0021101D01*
X0115911Y0021254D01*
X0115878Y0021409D01*
X0115848Y0021565D01*
X0115822Y0021721D01*
X0115801Y0021878D01*
X0115783Y0022035D01*
X0115769Y0022193D01*
X0115759Y0022351D01*
X0115753Y0022509D01*
X0115751Y0022667D01*
X0120751Y0237667D02*
X0120753Y0237825D01*
X0120759Y0237983D01*
X0120769Y0238141D01*
X0120783Y0238299D01*
X0120801Y0238456D01*
X0120822Y0238613D01*
X0120848Y0238769D01*
X0120878Y0238925D01*
X0120911Y0239080D01*
X0120949Y0239233D01*
X0120990Y0239386D01*
X0121035Y0239538D01*
X0121084Y0239689D01*
X0121137Y0239838D01*
X0121193Y0239986D01*
X0121253Y0240132D01*
X0121317Y0240277D01*
X0121385Y0240420D01*
X0121456Y0240562D01*
X0121530Y0240702D01*
X0121608Y0240839D01*
X0121690Y0240975D01*
X0121774Y0241109D01*
X0121863Y0241240D01*
X0121954Y0241369D01*
X0122049Y0241496D01*
X0122146Y0241621D01*
X0122247Y0241743D01*
X0122351Y0241862D01*
X0122458Y0241979D01*
X0122568Y0242093D01*
X0122681Y0242204D01*
X0122796Y0242313D01*
X0122914Y0242418D01*
X0123035Y0242520D01*
X0123158Y0242620D01*
X0123284Y0242716D01*
X0123412Y0242809D01*
X0123542Y0242899D01*
X0123675Y0242985D01*
X0123810Y0243069D01*
X0123946Y0243148D01*
X0124085Y0243225D01*
X0124226Y0243297D01*
X0124368Y0243367D01*
X0124512Y0243432D01*
X0124658Y0243494D01*
X0124805Y0243552D01*
X0124954Y0243607D01*
X0125104Y0243658D01*
X0125255Y0243705D01*
X0125407Y0243748D01*
X0125560Y0243787D01*
X0125715Y0243823D01*
X0125870Y0243854D01*
X0126026Y0243882D01*
X0126182Y0243906D01*
X0126339Y0243926D01*
X0126497Y0243942D01*
X0126654Y0243954D01*
X0126813Y0243962D01*
X0126971Y0243966D01*
X0127129Y0243966D01*
X0127287Y0243962D01*
X0127446Y0243954D01*
X0127603Y0243942D01*
X0127761Y0243926D01*
X0127918Y0243906D01*
X0128074Y0243882D01*
X0128230Y0243854D01*
X0128385Y0243823D01*
X0128540Y0243787D01*
X0128693Y0243748D01*
X0128845Y0243705D01*
X0128996Y0243658D01*
X0129146Y0243607D01*
X0129295Y0243552D01*
X0129442Y0243494D01*
X0129588Y0243432D01*
X0129732Y0243367D01*
X0129874Y0243297D01*
X0130015Y0243225D01*
X0130154Y0243148D01*
X0130290Y0243069D01*
X0130425Y0242985D01*
X0130558Y0242899D01*
X0130688Y0242809D01*
X0130816Y0242716D01*
X0130942Y0242620D01*
X0131065Y0242520D01*
X0131186Y0242418D01*
X0131304Y0242313D01*
X0131419Y0242204D01*
X0131532Y0242093D01*
X0131642Y0241979D01*
X0131749Y0241862D01*
X0131853Y0241743D01*
X0131954Y0241621D01*
X0132051Y0241496D01*
X0132146Y0241369D01*
X0132237Y0241240D01*
X0132326Y0241109D01*
X0132410Y0240975D01*
X0132492Y0240839D01*
X0132570Y0240702D01*
X0132644Y0240562D01*
X0132715Y0240420D01*
X0132783Y0240277D01*
X0132847Y0240132D01*
X0132907Y0239986D01*
X0132963Y0239838D01*
X0133016Y0239689D01*
X0133065Y0239538D01*
X0133110Y0239386D01*
X0133151Y0239233D01*
X0133189Y0239080D01*
X0133222Y0238925D01*
X0133252Y0238769D01*
X0133278Y0238613D01*
X0133299Y0238456D01*
X0133317Y0238299D01*
X0133331Y0238141D01*
X0133341Y0237983D01*
X0133347Y0237825D01*
X0133349Y0237667D01*
X0133347Y0237509D01*
X0133341Y0237351D01*
X0133331Y0237193D01*
X0133317Y0237035D01*
X0133299Y0236878D01*
X0133278Y0236721D01*
X0133252Y0236565D01*
X0133222Y0236409D01*
X0133189Y0236254D01*
X0133151Y0236101D01*
X0133110Y0235948D01*
X0133065Y0235796D01*
X0133016Y0235645D01*
X0132963Y0235496D01*
X0132907Y0235348D01*
X0132847Y0235202D01*
X0132783Y0235057D01*
X0132715Y0234914D01*
X0132644Y0234772D01*
X0132570Y0234632D01*
X0132492Y0234495D01*
X0132410Y0234359D01*
X0132326Y0234225D01*
X0132237Y0234094D01*
X0132146Y0233965D01*
X0132051Y0233838D01*
X0131954Y0233713D01*
X0131853Y0233591D01*
X0131749Y0233472D01*
X0131642Y0233355D01*
X0131532Y0233241D01*
X0131419Y0233130D01*
X0131304Y0233021D01*
X0131186Y0232916D01*
X0131065Y0232814D01*
X0130942Y0232714D01*
X0130816Y0232618D01*
X0130688Y0232525D01*
X0130558Y0232435D01*
X0130425Y0232349D01*
X0130290Y0232265D01*
X0130154Y0232186D01*
X0130015Y0232109D01*
X0129874Y0232037D01*
X0129732Y0231967D01*
X0129588Y0231902D01*
X0129442Y0231840D01*
X0129295Y0231782D01*
X0129146Y0231727D01*
X0128996Y0231676D01*
X0128845Y0231629D01*
X0128693Y0231586D01*
X0128540Y0231547D01*
X0128385Y0231511D01*
X0128230Y0231480D01*
X0128074Y0231452D01*
X0127918Y0231428D01*
X0127761Y0231408D01*
X0127603Y0231392D01*
X0127446Y0231380D01*
X0127287Y0231372D01*
X0127129Y0231368D01*
X0126971Y0231368D01*
X0126813Y0231372D01*
X0126654Y0231380D01*
X0126497Y0231392D01*
X0126339Y0231408D01*
X0126182Y0231428D01*
X0126026Y0231452D01*
X0125870Y0231480D01*
X0125715Y0231511D01*
X0125560Y0231547D01*
X0125407Y0231586D01*
X0125255Y0231629D01*
X0125104Y0231676D01*
X0124954Y0231727D01*
X0124805Y0231782D01*
X0124658Y0231840D01*
X0124512Y0231902D01*
X0124368Y0231967D01*
X0124226Y0232037D01*
X0124085Y0232109D01*
X0123946Y0232186D01*
X0123810Y0232265D01*
X0123675Y0232349D01*
X0123542Y0232435D01*
X0123412Y0232525D01*
X0123284Y0232618D01*
X0123158Y0232714D01*
X0123035Y0232814D01*
X0122914Y0232916D01*
X0122796Y0233021D01*
X0122681Y0233130D01*
X0122568Y0233241D01*
X0122458Y0233355D01*
X0122351Y0233472D01*
X0122247Y0233591D01*
X0122146Y0233713D01*
X0122049Y0233838D01*
X0121954Y0233965D01*
X0121863Y0234094D01*
X0121774Y0234225D01*
X0121690Y0234359D01*
X0121608Y0234495D01*
X0121530Y0234632D01*
X0121456Y0234772D01*
X0121385Y0234914D01*
X0121317Y0235057D01*
X0121253Y0235202D01*
X0121193Y0235348D01*
X0121137Y0235496D01*
X0121084Y0235645D01*
X0121035Y0235796D01*
X0120990Y0235948D01*
X0120949Y0236101D01*
X0120911Y0236254D01*
X0120878Y0236409D01*
X0120848Y0236565D01*
X0120822Y0236721D01*
X0120801Y0236878D01*
X0120783Y0237035D01*
X0120769Y0237193D01*
X0120759Y0237351D01*
X0120753Y0237509D01*
X0120751Y0237667D01*
D11*
X0052562Y0167667D03*
X0052562Y0152667D03*
X0041538Y0152667D03*
X0041538Y0167667D03*
X0022562Y0157667D03*
X0022562Y0142667D03*
X0011538Y0142667D03*
X0011538Y0157667D03*
X0036538Y0067667D03*
X0047562Y0067667D03*
X0047562Y0047667D03*
X0036538Y0047667D03*
X0111538Y0097667D03*
X0122562Y0097667D03*
D12*
X0127050Y0157155D03*
X0127050Y0168178D03*
X0112050Y0168178D03*
X0112050Y0157155D03*
D13*
X0127050Y0192667D03*
D14*
X0127050Y0202667D03*
X0127050Y0212667D03*
X0127050Y0222667D03*
X0013050Y0222667D03*
X0012050Y0212667D03*
X0013050Y0202667D03*
X0012050Y0192667D03*
X0013050Y0182667D03*
X0012050Y0172667D03*
D15*
X0095416Y0141938D03*
X0097975Y0141938D03*
X0100534Y0141938D03*
X0103093Y0141938D03*
X0105652Y0141938D03*
X0108211Y0141938D03*
X0110770Y0141938D03*
X0113330Y0141938D03*
X0115889Y0141938D03*
X0118448Y0141938D03*
X0121007Y0141938D03*
X0123566Y0141938D03*
X0126125Y0141938D03*
X0128684Y0141938D03*
X0128684Y0113395D03*
X0126125Y0113395D03*
X0123566Y0113395D03*
X0121007Y0113395D03*
X0118448Y0113395D03*
X0115889Y0113395D03*
X0113330Y0113395D03*
X0110770Y0113395D03*
X0108211Y0113395D03*
X0105652Y0113395D03*
X0103093Y0113395D03*
X0100534Y0113395D03*
X0097975Y0113395D03*
X0095416Y0113395D03*
D16*
X0030950Y0125067D03*
X0021950Y0125067D03*
X0012950Y0125067D03*
D17*
X0022050Y0100267D03*
D18*
X0036932Y0033100D03*
X0039491Y0033100D03*
X0042050Y0033100D03*
X0044609Y0033100D03*
X0047168Y0033100D03*
D19*
X0057798Y0022667D03*
X0026302Y0022667D03*
D20*
X0037050Y0022667D03*
X0047050Y0022667D03*
D21*
X0060160Y0047667D03*
X0073940Y0047667D03*
X0110160Y0047667D03*
X0123940Y0047667D03*
X0082050Y0130777D03*
X0082050Y0144556D03*
X0062050Y0144556D03*
X0062050Y0130777D03*
D22*
X0017050Y0067167D03*
X0017050Y0048167D03*
D23*
X0101538Y0217667D03*
X0112562Y0217667D03*
X0111538Y0082667D03*
X0111538Y0067667D03*
X0122562Y0067667D03*
X0122562Y0082667D03*
D24*
X0092050Y0157155D03*
X0092050Y0168178D03*
X0072050Y0168178D03*
X0072050Y0157155D03*
X0092050Y0232155D03*
X0092050Y0243178D03*
X0112050Y0243178D03*
X0112050Y0232155D03*
D25*
X0102050Y0204478D03*
X0102050Y0180856D03*
D26*
X0075475Y0240974D03*
X0023507Y0244517D03*
D27*
X0045554Y0189399D03*
X0069176Y0189399D03*
D28*
X0067601Y0229556D03*
X0071932Y0229556D03*
X0063270Y0231131D03*
X0058940Y0229556D03*
X0054609Y0231131D03*
X0050278Y0229556D03*
X0045948Y0227982D03*
X0041617Y0229556D03*
D29*
X0043113Y0093966D03*
X0044688Y0093966D03*
X0046263Y0093966D03*
X0047837Y0093966D03*
X0049412Y0093966D03*
X0050987Y0093966D03*
X0050987Y0081367D03*
X0049412Y0081367D03*
X0047837Y0081367D03*
X0046263Y0081367D03*
X0044688Y0081367D03*
X0043113Y0081367D03*
D30*
X0040751Y0083730D03*
X0040751Y0085304D03*
X0040751Y0086879D03*
X0040751Y0088454D03*
X0040751Y0090029D03*
X0040751Y0091604D03*
X0053349Y0091604D03*
X0053349Y0090029D03*
X0053349Y0088454D03*
X0053349Y0086879D03*
X0053349Y0085304D03*
X0053349Y0083730D03*
D31*
X0045534Y0085836D02*
X0045534Y0089498D01*
X0048566Y0089498D01*
X0048566Y0085836D01*
X0045534Y0085836D01*
X0045534Y0088866D02*
X0048566Y0088866D01*
D32*
X0065150Y0088690D03*
X0065150Y0085541D03*
X0065150Y0082391D03*
X0065150Y0079241D03*
X0065150Y0076092D03*
X0065150Y0072942D03*
X0065150Y0069793D03*
X0065150Y0066643D03*
X0098950Y0066643D03*
X0098950Y0069793D03*
X0098950Y0072942D03*
X0098950Y0076092D03*
X0098950Y0079241D03*
X0098950Y0082391D03*
X0098950Y0085541D03*
X0098950Y0088690D03*
D33*
X0093074Y0094567D03*
X0089924Y0094567D03*
X0086774Y0094567D03*
X0083625Y0094567D03*
X0080475Y0094567D03*
X0077326Y0094567D03*
X0074176Y0094567D03*
X0071026Y0094567D03*
X0071026Y0060767D03*
X0074176Y0060767D03*
X0077326Y0060767D03*
X0080475Y0060767D03*
X0083625Y0060767D03*
X0086774Y0060767D03*
X0089924Y0060767D03*
X0093074Y0060767D03*
D34*
X0074432Y0107942D03*
X0069511Y0107942D03*
X0064589Y0107942D03*
X0059668Y0107942D03*
X0059668Y0117391D03*
X0064589Y0117391D03*
X0069511Y0117391D03*
X0074432Y0117391D03*
D35*
X0088113Y0029753D03*
X0095987Y0029753D03*
D36*
X0105436Y0022667D03*
X0078664Y0022667D03*
D37*
X0074650Y0030267D02*
X0087850Y0030267D01*
X0088113Y0029753D01*
X0088450Y0029667D01*
X0088450Y0023067D01*
X0093850Y0017667D01*
X0098050Y0017667D01*
X0101050Y0020667D01*
X0101050Y0030867D01*
X0119650Y0049467D01*
X0119650Y0065067D01*
X0122050Y0067467D01*
X0122562Y0067667D01*
X0122650Y0068067D01*
X0122650Y0082467D01*
X0122562Y0082667D01*
X0122050Y0083067D01*
X0117250Y0087867D01*
X0108250Y0087867D01*
X0107050Y0086667D01*
X0107050Y0085467D01*
X0101050Y0079467D01*
X0099250Y0079467D01*
X0098950Y0079241D01*
X0098650Y0078867D01*
X0072250Y0078867D01*
X0069250Y0081867D01*
X0065650Y0081867D01*
X0065150Y0082391D01*
X0065050Y0081867D01*
X0061450Y0081867D01*
X0061450Y0077667D01*
X0062650Y0076467D01*
X0065050Y0076467D01*
X0065150Y0076092D01*
X0065050Y0073467D02*
X0065150Y0072942D01*
X0065650Y0073467D01*
X0067450Y0073467D01*
X0068650Y0074667D01*
X0068650Y0077667D01*
X0069850Y0077667D01*
X0068650Y0077667D02*
X0067450Y0078867D01*
X0065650Y0078867D01*
X0065150Y0079241D01*
X0065050Y0073467D02*
X0049450Y0073467D01*
X0042850Y0080067D01*
X0042850Y0081267D01*
X0043113Y0081367D01*
X0042850Y0081867D01*
X0039250Y0081867D01*
X0030850Y0090267D01*
X0030850Y0114267D01*
X0025450Y0119667D01*
X0030850Y0125067D01*
X0030950Y0125067D01*
X0031450Y0125067D01*
X0031450Y0150867D01*
X0038050Y0157467D01*
X0045850Y0157467D01*
X0045850Y0137667D01*
X0059650Y0123867D01*
X0059650Y0121467D01*
X0062050Y0121467D01*
X0059650Y0121467D02*
X0059650Y0117867D01*
X0059668Y0117391D01*
X0059650Y0113667D02*
X0060850Y0113667D01*
X0064450Y0117267D01*
X0064589Y0117391D01*
X0064450Y0117867D01*
X0064450Y0122667D01*
X0060250Y0126867D01*
X0058450Y0126867D01*
X0053050Y0132267D01*
X0053050Y0152667D01*
X0052562Y0152667D01*
X0052450Y0152667D01*
X0052450Y0167667D01*
X0052562Y0167667D01*
X0071650Y0167667D01*
X0072050Y0168178D01*
X0072250Y0168267D01*
X0076450Y0172467D01*
X0096250Y0172467D01*
X0097450Y0171267D01*
X0097450Y0164667D01*
X0100450Y0161667D01*
X0116050Y0161667D01*
X0116650Y0161067D01*
X0116650Y0153267D01*
X0113650Y0150267D01*
X0113650Y0142467D01*
X0113330Y0141938D01*
X0113650Y0141867D01*
X0113650Y0138867D01*
X0112450Y0137667D01*
X0104650Y0137667D01*
X0103450Y0138867D01*
X0103450Y0141867D01*
X0103093Y0141938D01*
X0102850Y0141867D01*
X0101050Y0141867D01*
X0100534Y0141938D01*
X0089050Y0140667D02*
X0105250Y0156867D01*
X0111850Y0156867D01*
X0112050Y0157155D01*
X0108850Y0162867D02*
X0116650Y0162867D01*
X0117850Y0161667D01*
X0117850Y0146667D01*
X0116050Y0144867D01*
X0116050Y0142467D01*
X0115889Y0141938D01*
X0113650Y0138867D02*
X0114850Y0137667D01*
X0119650Y0137667D01*
X0120850Y0138867D01*
X0120850Y0141867D01*
X0121007Y0141938D01*
X0120850Y0142467D01*
X0120850Y0168267D01*
X0112450Y0168267D01*
X0112050Y0168178D01*
X0111850Y0168267D01*
X0102250Y0177867D01*
X0102250Y0180267D01*
X0102050Y0180856D01*
X0101650Y0180267D01*
X0059650Y0222267D01*
X0012250Y0174867D01*
X0012250Y0173067D01*
X0012050Y0172667D01*
X0011650Y0172467D01*
X0011650Y0158067D01*
X0011538Y0157667D01*
X0013450Y0152667D02*
X0014650Y0152667D01*
X0018250Y0156267D01*
X0018250Y0161667D01*
X0030250Y0173667D01*
X0098050Y0173667D01*
X0108850Y0162867D01*
X0102250Y0173067D02*
X0100450Y0173067D01*
X0084250Y0189267D01*
X0069250Y0189267D01*
X0069176Y0189399D01*
X0086050Y0168267D02*
X0077650Y0159867D01*
X0077650Y0140067D01*
X0083050Y0139467D02*
X0077650Y0134067D01*
X0077650Y0115467D01*
X0074650Y0112467D01*
X0074650Y0108267D01*
X0074432Y0107942D01*
X0074650Y0107667D01*
X0075250Y0107067D01*
X0075250Y0103467D01*
X0074050Y0101067D02*
X0071650Y0103467D01*
X0071650Y0110667D01*
X0068650Y0113667D01*
X0068050Y0113667D01*
X0066850Y0114867D01*
X0066850Y0125667D01*
X0062050Y0130467D01*
X0062050Y0130777D01*
X0062050Y0144556D02*
X0062050Y0147267D01*
X0071650Y0156867D01*
X0072050Y0157155D01*
X0082050Y0144556D02*
X0082450Y0144867D01*
X0082450Y0158067D01*
X0092050Y0167667D01*
X0092050Y0168178D01*
X0097450Y0164667D02*
X0092050Y0159267D01*
X0092050Y0157155D01*
X0089050Y0140667D02*
X0082450Y0140667D01*
X0069850Y0128067D01*
X0069850Y0117867D01*
X0069511Y0117391D01*
X0072250Y0121467D02*
X0074050Y0119667D01*
X0074050Y0117867D01*
X0074432Y0117391D01*
X0069511Y0107942D02*
X0069250Y0107667D01*
X0065050Y0103467D01*
X0059650Y0096867D02*
X0059650Y0081867D01*
X0051250Y0081867D01*
X0050987Y0081367D01*
X0053349Y0090029D02*
X0053650Y0090267D01*
X0057250Y0090267D01*
X0053349Y0091604D02*
X0053050Y0091467D01*
X0057250Y0095667D01*
X0059650Y0096867D02*
X0051250Y0105267D01*
X0038650Y0092667D01*
X0038650Y0089067D01*
X0039250Y0088467D01*
X0040450Y0088467D01*
X0040751Y0088454D01*
X0040751Y0086879D02*
X0040450Y0086667D01*
X0039250Y0086667D01*
X0037450Y0088467D01*
X0037450Y0149067D01*
X0041050Y0152667D01*
X0041538Y0152667D01*
X0045850Y0157467D02*
X0045850Y0163467D01*
X0045250Y0164067D01*
X0047050Y0165867D01*
X0045250Y0164067D02*
X0041650Y0167667D01*
X0041538Y0167667D01*
X0037450Y0164067D02*
X0037450Y0171867D01*
X0038050Y0172467D01*
X0047650Y0172467D01*
X0052450Y0167667D01*
X0037450Y0164067D02*
X0023050Y0149667D01*
X0023050Y0143067D01*
X0022562Y0142667D01*
X0022450Y0142467D01*
X0022450Y0125067D01*
X0021950Y0125067D01*
X0018850Y0119667D02*
X0025450Y0119667D01*
X0018850Y0119667D02*
X0017650Y0120867D01*
X0017650Y0146067D01*
X0022450Y0150867D01*
X0022450Y0157467D01*
X0022562Y0157667D01*
X0013450Y0152667D02*
X0007450Y0146667D01*
X0007450Y0049467D01*
X0023650Y0033267D01*
X0036850Y0033267D01*
X0036932Y0033100D01*
X0039491Y0033100D02*
X0039850Y0033267D01*
X0039850Y0035667D01*
X0043450Y0039267D01*
X0043450Y0036867D02*
X0042250Y0035667D01*
X0042250Y0033267D01*
X0042050Y0033100D01*
X0043450Y0036867D02*
X0076450Y0036867D01*
X0074650Y0030267D02*
X0067450Y0023067D01*
X0057850Y0023067D01*
X0057798Y0022667D01*
X0057250Y0023067D01*
X0048850Y0031467D01*
X0046450Y0029067D01*
X0034450Y0029067D01*
X0028450Y0023067D01*
X0026650Y0023067D01*
X0026302Y0022667D01*
X0017050Y0041667D02*
X0090850Y0041667D01*
X0095650Y0036867D01*
X0095650Y0030267D01*
X0095987Y0029753D01*
X0091450Y0047667D02*
X0111250Y0067467D01*
X0111538Y0067667D01*
X0116050Y0063267D02*
X0116050Y0078267D01*
X0111850Y0082467D01*
X0111538Y0082667D01*
X0105850Y0080667D02*
X0105850Y0068067D01*
X0095050Y0057267D01*
X0084850Y0057267D01*
X0083650Y0058467D01*
X0083650Y0060267D01*
X0083625Y0060767D01*
X0086650Y0062667D02*
X0084850Y0064467D01*
X0069850Y0064467D01*
X0067450Y0062067D01*
X0067450Y0060267D01*
X0065050Y0066267D02*
X0065150Y0066643D01*
X0065050Y0066267D02*
X0055450Y0066267D01*
X0036850Y0047667D01*
X0036538Y0047667D01*
X0017050Y0047667D01*
X0017050Y0048167D01*
X0013450Y0047067D02*
X0017650Y0042867D01*
X0042250Y0042867D01*
X0047050Y0047667D01*
X0047562Y0047667D01*
X0051250Y0047667D01*
X0072250Y0068667D01*
X0072250Y0078867D01*
X0074650Y0069267D02*
X0083650Y0069267D01*
X0089650Y0063267D01*
X0089650Y0060867D01*
X0089924Y0060767D01*
X0092650Y0060867D02*
X0093074Y0060767D01*
X0092650Y0060867D02*
X0092650Y0063867D01*
X0089650Y0066867D01*
X0086650Y0069867D02*
X0098650Y0069867D01*
X0098950Y0069793D01*
X0099250Y0066867D02*
X0098950Y0066643D01*
X0099250Y0066867D02*
X0101050Y0066867D01*
X0103450Y0069267D01*
X0110650Y0057867D02*
X0116050Y0063267D01*
X0110650Y0057867D02*
X0110650Y0047667D01*
X0110160Y0047667D01*
X0123940Y0047667D02*
X0124450Y0047667D01*
X0126850Y0050067D01*
X0126850Y0087267D01*
X0123250Y0090867D01*
X0096250Y0090867D01*
X0094450Y0089067D01*
X0065650Y0089067D01*
X0065150Y0088690D01*
X0061450Y0081867D02*
X0059650Y0081867D01*
X0051250Y0072267D02*
X0053650Y0069867D01*
X0065050Y0069867D01*
X0065150Y0069793D01*
X0064450Y0051867D02*
X0060250Y0047667D01*
X0060160Y0047667D01*
X0064450Y0051867D02*
X0073450Y0051867D01*
X0080050Y0058467D01*
X0080050Y0060267D01*
X0080475Y0060767D01*
X0086650Y0060867D02*
X0086774Y0060767D01*
X0086650Y0060867D02*
X0086650Y0062667D01*
X0091450Y0047667D02*
X0073940Y0047667D01*
X0075850Y0090867D02*
X0074650Y0092067D01*
X0074650Y0094467D01*
X0074176Y0094567D01*
X0074050Y0095067D01*
X0074050Y0101067D01*
X0077650Y0099867D02*
X0077650Y0095067D01*
X0077326Y0094567D01*
X0077650Y0099867D02*
X0090850Y0113067D01*
X0082450Y0121467D01*
X0082450Y0130467D01*
X0082050Y0130777D01*
X0083050Y0139467D02*
X0091450Y0139467D01*
X0103450Y0119067D02*
X0103450Y0113667D01*
X0103093Y0113395D01*
X0105652Y0113395D02*
X0105850Y0113067D01*
X0105850Y0110667D01*
X0114250Y0102267D01*
X0115450Y0102267D01*
X0116050Y0101667D01*
X0116050Y0093867D01*
X0114250Y0092067D01*
X0095650Y0092067D01*
X0094450Y0090867D01*
X0075850Y0090867D01*
X0080475Y0094567D02*
X0080650Y0095067D01*
X0080650Y0099267D01*
X0083050Y0101667D02*
X0083050Y0095067D01*
X0083625Y0094567D01*
X0086650Y0095067D02*
X0086650Y0101667D01*
X0086650Y0095067D02*
X0086774Y0094567D01*
X0090850Y0113067D02*
X0095050Y0113067D01*
X0095416Y0113395D01*
X0097975Y0113395D02*
X0098050Y0113067D01*
X0098050Y0110667D01*
X0111250Y0097467D01*
X0111538Y0097667D01*
X0117850Y0102267D02*
X0120250Y0099867D01*
X0122562Y0097667D01*
X0122050Y0098067D01*
X0120250Y0099867D01*
X0132850Y0112467D01*
X0132850Y0223467D01*
X0128650Y0227667D01*
X0125050Y0227667D01*
X0118450Y0234267D01*
X0118450Y0245667D01*
X0116650Y0247467D01*
X0087850Y0247467D01*
X0086650Y0246267D01*
X0086650Y0228867D01*
X0097450Y0218067D01*
X0101050Y0218067D01*
X0101538Y0217667D01*
X0101650Y0217467D01*
X0101650Y0204867D01*
X0102050Y0204478D01*
X0108250Y0213267D02*
X0123850Y0197667D01*
X0128650Y0197667D01*
X0131650Y0200667D01*
X0131650Y0218067D01*
X0127050Y0222667D01*
X0117250Y0222267D02*
X0113050Y0218067D01*
X0112562Y0217667D01*
X0113050Y0217467D01*
X0127450Y0203067D01*
X0127050Y0202667D01*
X0127050Y0192667D02*
X0127450Y0192267D01*
X0127450Y0168267D01*
X0127050Y0168178D01*
X0126850Y0168267D01*
X0120850Y0168267D01*
X0127050Y0168178D02*
X0127450Y0167667D01*
X0131650Y0163467D01*
X0131650Y0137067D01*
X0111250Y0116667D01*
X0111250Y0113667D01*
X0110770Y0113395D01*
X0117850Y0103467D02*
X0117850Y0102267D01*
X0103450Y0119067D02*
X0123250Y0138867D01*
X0123250Y0141867D01*
X0123566Y0141938D01*
X0123850Y0142467D01*
X0123850Y0144867D01*
X0126850Y0147867D01*
X0126850Y0156867D01*
X0127050Y0157155D01*
X0126125Y0141938D02*
X0125650Y0141867D01*
X0125650Y0138867D01*
X0123850Y0137067D01*
X0123850Y0135867D01*
X0127450Y0136467D02*
X0127450Y0137667D01*
X0128650Y0138867D01*
X0128650Y0141867D01*
X0128684Y0141938D01*
X0108250Y0213267D02*
X0108250Y0222267D01*
X0111850Y0225867D01*
X0111850Y0231867D01*
X0112050Y0232155D01*
X0117250Y0235467D02*
X0112450Y0240267D01*
X0112450Y0242667D01*
X0112050Y0243178D01*
X0111850Y0243267D01*
X0092050Y0243267D01*
X0092050Y0243178D01*
X0092050Y0232155D02*
X0092050Y0231867D01*
X0105850Y0231867D01*
X0117250Y0235467D02*
X0117250Y0222267D01*
X0079450Y0236667D02*
X0079450Y0245067D01*
X0075250Y0249267D01*
X0011650Y0249267D01*
X0003850Y0241467D01*
X0003850Y0220467D01*
X0011650Y0212667D01*
X0012050Y0212667D01*
X0011650Y0207867D02*
X0026050Y0207867D01*
X0045850Y0227667D01*
X0045948Y0227982D01*
X0050050Y0229467D02*
X0050050Y0226467D01*
X0026650Y0203067D01*
X0013450Y0203067D01*
X0013050Y0202667D01*
X0011650Y0207867D02*
X0005050Y0201267D01*
X0005050Y0122667D01*
X0011650Y0126267D02*
X0012850Y0125067D01*
X0012950Y0125067D01*
X0012850Y0125067D02*
X0012850Y0050667D01*
X0012250Y0050067D01*
X0012250Y0046467D01*
X0017050Y0041667D01*
X0013450Y0047067D02*
X0013450Y0049467D01*
X0015850Y0051867D01*
X0029050Y0051867D01*
X0044650Y0067467D01*
X0047050Y0067467D01*
X0047562Y0067667D01*
X0051250Y0072267D02*
X0041050Y0072267D01*
X0036850Y0068067D01*
X0036538Y0067667D01*
X0036250Y0067467D01*
X0017050Y0067467D01*
X0017050Y0067167D01*
X0040751Y0090029D02*
X0041050Y0090267D01*
X0042250Y0090267D01*
X0042850Y0089667D01*
X0042850Y0081867D01*
X0051250Y0105267D02*
X0059650Y0113667D01*
X0047168Y0033100D02*
X0047650Y0032667D01*
X0048850Y0031467D01*
X0011650Y0126267D02*
X0011650Y0142467D01*
X0011538Y0142667D01*
X0013050Y0182667D02*
X0013450Y0182667D01*
X0054250Y0223467D01*
X0054250Y0230667D01*
X0054609Y0231131D01*
X0058450Y0233067D02*
X0056050Y0235467D01*
X0026050Y0235467D01*
X0013450Y0222867D01*
X0013050Y0222667D01*
X0023507Y0244517D02*
X0023650Y0244467D01*
X0050050Y0244467D01*
X0063250Y0231267D01*
X0063270Y0231131D01*
X0063250Y0230667D01*
X0063250Y0225867D01*
X0059650Y0222267D01*
X0058940Y0229556D02*
X0058450Y0230067D01*
X0058450Y0233067D01*
X0063270Y0231131D02*
X0063850Y0231267D01*
X0065050Y0232467D01*
X0065050Y0233067D01*
X0072850Y0240867D01*
X0075250Y0240867D01*
X0075475Y0240974D01*
X0079450Y0236667D02*
X0078850Y0236067D01*
X0072250Y0236067D01*
X0068050Y0231867D01*
X0068050Y0230067D01*
X0067601Y0229556D01*
X0050278Y0229556D02*
X0050050Y0229467D01*
D38*
X0047050Y0165867D03*
X0062050Y0121467D03*
X0065050Y0103467D03*
X0057250Y0095667D03*
X0057250Y0090267D03*
X0069850Y0077667D03*
X0074650Y0069267D03*
X0067450Y0060267D03*
X0076450Y0036867D03*
X0089650Y0066867D03*
X0086650Y0069867D03*
X0080650Y0099267D03*
X0083050Y0101667D03*
X0086650Y0101667D03*
X0075250Y0103467D03*
X0072250Y0121467D03*
X0077650Y0140067D03*
X0091450Y0139467D03*
X0086050Y0168267D03*
X0102250Y0173067D03*
X0123850Y0135867D03*
X0127450Y0136467D03*
X0117850Y0103467D03*
X0105850Y0080667D03*
X0103450Y0069267D03*
X0043450Y0039267D03*
X0005050Y0122667D03*
X0105850Y0231867D03*
M02*
